# xmcd
#
# Track frame offsets:
#	150
#	14575
#	28575
#	44075
#	58450
#	80425
#	93213
#	105338
#	122063
#	136313
#	152175
#	166950
#	181650
#	196925
#
# Disc length: 2804 seconds
#
# Revision: 1
# Processed by: cddbd v1.5.2PL0 Copyright (c) Steve Scherf et al.
# Submitted via: audiograbber 1.83.01
#
DISCID=b60af20e
DTITLE=Ajax - Under linden
DYEAR=1984
DGENRE=Dansband
TTITLE0=Under linden
TTITLE1=Beatrice Auror
TTITLE2=Tack för alla åren
TTITLE3=Violetta
TTITLE4=Tusen bitar
TTITLE5=Höga berg, djupa hav
TTITLE6=Så vi möts igen
TTITLE7=En sång om kärleken
TTITLE8=Slå en signal
TTITLE9=Så många barn
TTITLE10=Världens bästa servitris
TTITLE11=Min Angelique
TTITLE12=Somebody
TTITLE13=Corrina Corrina
EXTD=
EXTT0=
EXTT1=
EXTT2=
EXTT3=
EXTT4=
EXTT5=
EXTT6=
EXTT7=
EXTT8=
EXTT9=
EXTT10=
EXTT11=
EXTT12=
EXTT13=
PLAYORDER=
